<svg xmlns="http://www.w3.org/2000/svg" viewBox="0 0 240 320">
  <defs>
    <radialGradient id="bg" cx="50%" cy="35%" r="70%">
      <stop offset="0%" stop-color="#3a1c10"/>
      <stop offset="55%" stop-color="#1d110a"/>
      <stop offset="100%" stop-color="#0F0E0A"/>
    </radialGradient>
    <linearGradient id="gold" x1="0" y1="0" x2="0.2" y2="1">
      <stop offset="0%" stop-color="#FAD8A8"/>
      <stop offset="50%" stop-color="#C47A2A"/>
      <stop offset="100%" stop-color="#7A4312"/>
    </linearGradient>
    <radialGradient id="glow" cx="50%" cy="32%" r="50%">
      <stop offset="0%" stop-color="rgba(245,158,11,0.3)"/>
      <stop offset="100%" stop-color="rgba(245,158,11,0)"/>
    </radialGradient>
  </defs>
  <rect width="240" height="320" fill="url(#bg)"/>
  <circle cx="120" cy="150" r="112" fill="url(#glow)"/>
  <path d="M118 48
    C 94 50, 88 78, 88 100
    C 88 120, 80 136, 66 154
    C 56 170, 52 200, 52 240
    L 52 320 L 178 320
    C 180 280, 176 240, 170 210
    C 166 190, 158 176, 146 168
    C 138 163, 134 156, 134 150
    C 142 148, 146 140, 146 132
    C 150 126, 150 120, 148 116
    C 151 114, 152 112, 152 108
    C 158 104, 163 100, 164 94
    C 160 88, 152 86, 148 82
    C 144 78, 138 72, 134 66
    C 128 58, 122 52, 118 48
    Z" fill="url(#gold)"/>
  <path d="M96 54 Q100 20 132 28 Q142 36 140 46 Q144 50 146 58 Q132 66 96 62 Z" fill="url(#gold)"/>
  <path d="M96 60 L 146 58" stroke="rgba(0,0,0,0.25)" stroke-width="2"/>
  <path d="M70 300 Q120 332 170 300" fill="none" stroke="rgba(196,122,42,0.5)" stroke-width="2"/>
</svg>
